<svg xmlns="http://www.w3.org/2000/svg" width="844" height="214" fill="none"><path fill="#213645" d="M290.312 154V60.91h25.091v35.454h.364c.909-2.364 2.242-4.53 4-6.5 1.758-2 3.939-3.591 6.545-4.773 2.607-1.212 5.637-1.818 9.091-1.818 4.606 0 8.985 1.227 13.137 3.681 4.182 2.455 7.576 6.319 10.182 11.592 2.636 5.272 3.954 12.121 3.954 20.545 0 8.061-1.257 14.742-3.773 20.045-2.484 5.303-5.818 9.258-10 11.864-4.151 2.606-8.712 3.909-13.681 3.909-3.273 0-6.197-.53-8.773-1.591-2.546-1.091-4.727-2.56-6.546-4.409a20.405 20.405 0 0 1-4.136-6.364h-.545V154h-24.91Zm24.546-34.909c0 3.394.439 6.333 1.318 8.818.909 2.455 2.182 4.364 3.818 5.727 1.667 1.334 3.652 2 5.955 2s4.257-.651 5.863-1.954c1.637-1.334 2.879-3.227 3.728-5.682.879-2.485 1.318-5.455 1.318-8.909 0-3.455-.439-6.409-1.318-8.864-.849-2.485-2.091-4.379-3.728-5.682-1.606-1.333-3.56-2-5.863-2-2.303 0-4.288.667-5.955 2-1.636 1.303-2.909 3.197-3.818 5.682-.879 2.455-1.318 5.409-1.318 8.864ZM418.449 123.455V84.182h25.091V154h-23.818v-13.273h-.728c-1.515 4.455-4.166 7.94-7.954 10.455-3.788 2.485-8.288 3.727-13.5 3.727-4.879 0-9.152-1.121-12.818-3.364-3.637-2.242-6.47-5.333-8.5-9.272-2-3.94-3.016-8.455-3.046-13.546V84.182h25.091v39.273c.03 3.454.909 6.166 2.636 8.136 1.758 1.97 4.213 2.954 7.364 2.954 2.091 0 3.894-.439 5.409-1.318 1.546-.909 2.727-2.182 3.546-3.818.848-1.667 1.257-3.651 1.227-5.954ZM456.301 154V84.182h25.091V154h-25.091Zm12.546-77.09c-3.394 0-6.303-1.122-8.728-3.364-2.424-2.243-3.636-4.94-3.636-8.092 0-3.151 1.212-5.848 3.636-8.09 2.425-2.243 5.334-3.364 8.728-3.364 3.424 0 6.333 1.121 8.727 3.364 2.424 2.242 3.636 4.939 3.636 8.09 0 3.152-1.212 5.849-3.636 8.092-2.394 2.242-5.303 3.363-8.727 3.363ZM519.449 154.909c-4.97 0-9.546-1.303-13.727-3.909-4.152-2.606-7.485-6.561-10-11.864-2.485-5.303-3.728-11.984-3.728-20.045 0-8.424 1.303-15.273 3.909-20.545 2.637-5.273 6.031-9.137 10.182-11.592 4.182-2.454 8.576-3.681 13.182-3.681 3.455 0 6.485.606 9.091 1.818 2.606 1.182 4.788 2.773 6.545 4.773 1.758 1.97 3.091 4.136 4 6.5h.364V60.909h25.091V154h-24.909v-11.455h-.546a19.987 19.987 0 0 1-4.181 6.364c-1.788 1.849-3.97 3.318-6.546 4.409-2.545 1.061-5.454 1.591-8.727 1.591Zm9.273-19.273c2.303 0 4.272-.666 5.909-2 1.666-1.363 2.939-3.272 3.818-5.727.909-2.485 1.363-5.424 1.363-8.818 0-3.455-.454-6.409-1.363-8.864-.879-2.485-2.152-4.379-3.818-5.682-1.637-1.333-3.606-2-5.909-2s-4.273.667-5.91 2c-1.606 1.303-2.848 3.197-3.727 5.682-.848 2.455-1.273 5.409-1.273 8.864 0 3.454.425 6.424 1.273 8.909.879 2.455 2.121 4.348 3.727 5.682 1.637 1.303 3.607 1.954 5.91 1.954ZM601.767 60.91V154h-25.091V60.91h25.091ZM614.188 154V60.91h25.09v35.454h.364c.909-2.364 2.242-4.53 4-6.5 1.758-2 3.939-3.591 6.546-4.773 2.606-1.212 5.636-1.818 9.09-1.818 4.606 0 8.985 1.227 13.137 3.681 4.182 2.455 7.576 6.319 10.182 11.592 2.636 5.272 3.954 12.121 3.954 20.545 0 8.061-1.257 14.742-3.773 20.045-2.484 5.303-5.818 9.258-10 11.864-4.151 2.606-8.712 3.909-13.681 3.909-3.273 0-6.197-.53-8.773-1.591-2.546-1.091-4.727-2.56-6.546-4.409a20.405 20.405 0 0 1-4.136-6.364h-.545V154h-24.909Zm24.545-34.909c0 3.394.439 6.333 1.318 8.818.909 2.455 2.182 4.364 3.818 5.727 1.667 1.334 3.652 2 5.955 2s4.257-.651 5.864-1.954c1.636-1.334 2.878-3.227 3.727-5.682.879-2.485 1.318-5.455 1.318-8.909 0-3.455-.439-6.409-1.318-8.864-.849-2.485-2.091-4.379-3.727-5.682-1.607-1.333-3.561-2-5.864-2s-4.288.667-5.955 2c-1.636 1.303-2.909 3.197-3.818 5.682-.879 2.455-1.318 5.409-1.318 8.864ZM730.688 155.273c-7.576 0-14.061-1.5-19.455-4.5-5.394-3.031-9.53-7.243-12.409-12.637-2.879-5.424-4.318-11.712-4.318-18.863 0-7.152 1.439-13.425 4.318-18.818 2.879-5.425 7.015-9.637 12.409-12.637 5.394-3.03 11.879-4.545 19.455-4.545 7.575 0 14.06 1.515 19.454 4.545 5.394 3 9.53 7.212 12.409 12.637 2.879 5.393 4.318 11.666 4.318 18.818 0 7.151-1.439 13.439-4.318 18.863-2.879 5.394-7.015 9.606-12.409 12.637-5.394 3-11.879 4.5-19.454 4.5Zm.181-18.546c2.122 0 3.955-.712 5.5-2.136 1.546-1.424 2.743-3.455 3.591-6.091.849-2.636 1.273-5.773 1.273-9.409 0-3.667-.424-6.803-1.273-9.409-.848-2.637-2.045-4.667-3.591-6.091-1.545-1.424-3.378-2.136-5.5-2.136-2.242 0-4.166.712-5.772 2.136-1.606 1.424-2.834 3.454-3.682 6.091-.849 2.606-1.273 5.742-1.273 9.409 0 3.636.424 6.773 1.273 9.409.848 2.636 2.076 4.667 3.682 6.091 1.606 1.424 3.53 2.136 5.772 2.136ZM796.312 84.182l10.182 21.636 10.728-21.636h24.909l-18.728 34.909L843.04 154h-24.728l-11.818-22.182L795.04 154h-25.091l19.818-34.909-18.545-34.91h25.09Z"/><path fill="#E54DE5" d="M60.845 7h145.467v145.467H98.22c-20.627 0-37.375-16.748-37.375-37.375V7Z"/><path fill="#16DBBE" d="M7 61.533h105.209c22.22 0 40.25 18.038 40.25 40.25v105.209H7V61.532Z"/><path fill="#FFC800" fill-rule="evenodd" d="M152.191 152.467h-54.24c-20.627 0-37.375-16.748-37.375-37.375v-53.56h51.365c22.219 0 40.25 18.04 40.25 40.251v50.684Z" clip-rule="evenodd"/><path fill="#213645" fill-rule="evenodd" d="M.5 61.533a6.5 6.5 0 0 1 6.5-6.5h105.209c25.81 0 46.75 20.95 46.75 46.75v105.209a6.5 6.5 0 0 1-6.5 6.5H7a6.5 6.5 0 0 1-6.5-6.5V61.532Zm13 6.5v132.459h132.459v-98.709c0-18.623-15.121-33.75-33.75-33.75H13.5Z" clip-rule="evenodd"/><path fill="#213645" fill-rule="evenodd" d="M54.345 7a6.5 6.5 0 0 1 6.5-6.5h145.467a6.5 6.5 0 0 1 6.5 6.5v145.467a6.5 6.5 0 0 1-6.5 6.5H98.22c-24.217 0-43.875-19.658-43.875-43.875V7Zm13 6.5v101.592c0 17.038 13.838 30.875 30.875 30.875h101.592V13.5H67.345Z" clip-rule="evenodd"/><path fill="#213645" fill-rule="evenodd" d="M210.879 147.842a6.499 6.499 0 0 1 .058 9.192l-53.845 54.533a6.5 6.5 0 1 1-9.25-9.134l53.845-54.533a6.5 6.5 0 0 1 9.192-.058ZM65.412 2.375a6.5 6.5 0 0 1 .058 9.192L11.625 66.1a6.5 6.5 0 0 1-9.25-9.134L56.22 2.433a6.5 6.5 0 0 1 9.192-.058Z" clip-rule="evenodd"/></svg>