<svg xmlns="http://www.w3.org/2000/svg" width="12" height="11" fill="none"><path fill="#FFF1E2" d="M11.595.402A1.383 1.383 0 0 0 10.618 0H1.382c-.38 0-.728.154-.977.402C.155.649 0 .995 0 1.372v.72C0 2.975.542 3.77 1.369 4.1l.012.004 1.436.437c.072.092.147.182.23.268.534.545 1.052.91 1.41 1.207.178.148.314.279.394.39.04.055.067.104.084.15a.382.382 0 0 1 .024.136v.982c0 .143-.02.265-.054.366a.64.64 0 0 1-.225.326.629.629 0 0 1-.379.112H3.401v1.853H8.6V8.478h-.901a.686.686 0 0 1-.273-.052.562.562 0 0 1-.271-.249 1.022 1.022 0 0 1-.114-.503v-.982c0-.049.008-.09.024-.137a.857.857 0 0 1 .197-.282c.157-.166.405-.358.701-.592.296-.234.64-.514.99-.872.083-.086.159-.176.23-.268l1.436-.437.012-.004A2.163 2.163 0 0 0 12 2.09v-.719c0-.377-.155-.723-.405-.97ZM1.598 3.505A1.527 1.527 0 0 1 .64 2.091v-.719a.74.74 0 0 1 .741-.736h.631l-.002.444c0 .682.017 1.354.152 1.99.048.228.113.451.199.667l-.763-.232Zm7.614-.566a3.32 3.32 0 0 1-.259.773 2.488 2.488 0 0 1-.46.654c-.489.5-.971.841-1.36 1.163a2.924 2.924 0 0 0-.503.504 1.255 1.255 0 0 0-.166.304 1.02 1.02 0 0 0-.063.355v.982c0 .202.028.392.086.566.087.26.242.485.456.64.213.155.477.235.756.234h.26v.581H4.04v-.581h.261c.186 0 .365-.035.528-.104.244-.105.445-.29.575-.523.131-.232.195-.51.195-.813v-.982a1.02 1.02 0 0 0-.063-.355 1.47 1.47 0 0 0-.334-.503c-.212-.22-.475-.418-.766-.65-.29-.23-.609-.49-.93-.818a2.488 2.488 0 0 1-.46-.654c-.173-.356-.274-.76-.33-1.204a11.688 11.688 0 0 1-.065-1.428l.001-.444h6.696l.001.444c0 .67-.018 1.304-.137 1.859Zm2.148-.848c0 .622-.38 1.18-.958 1.414l-.763.232c.145-.366.23-.753.28-1.15.061-.49.07-.996.07-1.507L9.989.636h.63a.74.74 0 0 1 .742.736v.72Z"/></svg>